# xmcd
#
# Track frame offsets:
#	150
#	15017
#	26695
#	39000
#	58910
#	70920
#	86105
#	97582
#	119712
#	132310
#
# Disc length: 2000
#
# Revision: 3
# Processed by: cddbd v1.5.1PL0 Copyright (c) Steve Scherf et al.
# Submitted via: audiograbber 1.82.01
# Normalized: r2:DSETVAR1
#
DISCID=7807ce0a
DTITLE=Various Artist - Love Soul Ballads [disc 2]
DYEAR=1998
DGENRE=R&B - Soul
TTITLE0=Ben E. King - Stand By Me
TTITLE1=Platters - Smoke Gets in Your Eyes
TTITLE2=Percy Sledge - I've Been Loving You to Long
TTITLE3=Harold Melvin and the Bluenotes - If You Don't Know Me By Now
TTITLE4=Shirelles - Will You Still Love Me Tomorrow
TTITLE5=Paul Young - Tracks of My Tears
TTITLE6=Drifters - Save the Last Dance for Me
TTITLE7=Chi-Lites - Have You Seen Her
TTITLE8=Mary Wells - My Guy
TTITLE9=James Brown - It's A Man's Man's World
EXTD=Love Soul Ballads vol.2
EXTT0=
EXTT1=
EXTT2=
EXTT3=
EXTT4=
EXTT5=
EXTT6=
EXTT7=
EXTT8=
EXTT9=
PLAYORDER=
